<svg width="1280" height="182" xmlns="http://www.w3.org/2000/svg" xmlns:xlink="http://www.w3.org/1999/xlink" xml:space="preserve" overflow="hidden"><defs><clipPath id="clip0"><rect x="43" y="153" width="121" height="31"/></clipPath><clipPath id="clip1"><rect x="163" y="153" width="121" height="31"/></clipPath><clipPath id="clip2"><rect x="283" y="153" width="120" height="31"/></clipPath><clipPath id="clip3"><rect x="402" y="153" width="121" height="31"/></clipPath><clipPath id="clip4"><rect x="522" y="153" width="121" height="31"/></clipPath><clipPath id="clip5"><rect x="642" y="153" width="120" height="31"/></clipPath><clipPath id="clip6"><rect x="761" y="153" width="121" height="31"/></clipPath><clipPath id="clip7"><rect x="881" y="153" width="121" height="31"/></clipPath><clipPath id="clip8"><rect x="1001" y="153" width="120" height="31"/></clipPath><clipPath id="clip9"><rect x="1120" y="153" width="121" height="31"/></clipPath></defs><g transform="matrix(1 0 0 1 0 -64)"><g><path d="M1254.49 74.672 59.7334 74.672 59.7334 44.8065 1254.49 44.8065Z" stroke="#120777" stroke-width="2.09954" stroke-linecap="butt" stroke-linejoin="miter" stroke-miterlimit="10" stroke-opacity="1" fill="#746AFF" fill-rule="nonzero" fill-opacity="1" transform="matrix(1.0018 0 0 -1 -16.1925 168.315)"/><path d="M9.4832-9.05514C9.4832-9.15392 9.41735-9.25271 9.28564-9.25271 9.05514-9.25271 8.19902-8.42951 7.86974-7.80389 7.40875-8.95636 6.58556-9.28564 5.89407-9.28564 3.42449-9.28564 0.856122-6.19042 0.856122-3.12814 0.856122-1.08662 2.07445 0.230495 3.62206 0.230495 4.51111 0.230495 5.3343-0.263422 6.09164-1.02076 5.89407-0.29635 5.20259 2.53544 5.13673 2.73301 4.9721 3.32571 4.80746 3.39156 3.62206 3.42449 3.35863 3.42449 3.16107 3.42449 3.16107 3.85255 3.16107 3.85255 3.16107 4.08305 3.42449 4.08305 4.08305 4.08305 4.84038 4.01719 5.53187 4.01719 6.22335 4.01719 6.98069 4.08305 7.7051 4.08305 7.80389 4.08305 8.06731 4.08305 8.06731 3.65498 8.06731 3.42449 7.86974 3.42449 7.50754 3.42449 6.5197 3.42449 6.5197 3.29278 6.5197 3.09521 6.5197 2.93057 6.55263 2.79886 6.58556 2.63422ZM3.68791-0.230495C2.40373-0.230495 2.33787-1.84396 2.33787-2.20616 2.33787-3.22692 2.93057-5.49894 3.29278-6.38799 3.95133-7.9356 5.03795-8.82465 5.89407-8.82465 7.27704-8.82465 7.57339-7.1124 7.57339-6.98069 7.57339-6.84898 6.42092-2.23909 6.35506-2.17323 6.02579-1.58053 4.84038-0.230495 3.68791-0.230495Z" fill="#000000" fill-rule="nonzero" fill-opacity="1" transform="matrix(1.0018 0 0 1 637.03 80.0435)"/><g clip-path="url(#clip0)"><path d="M164.614 89.3825 40.9375 89.3825 40.9375 119.248 164.614 119.248Z" fill="#746AFF" fill-rule="nonzero" fill-opacity="1" transform="matrix(1.0018 0 0 1 0.534375 64)"/></g><path d="M179.212 14.9328 59.7334 14.9328 59.7334-14.9328 179.212-14.9328Z" stroke="#120777" stroke-width="2.09954" stroke-linecap="butt" stroke-linejoin="miter" stroke-miterlimit="10" stroke-opacity="1" fill="none" fill-rule="nonzero" transform="matrix(1.0018 0 0 -1 -16.1925 168.315)"/><path d="M9.4832-9.05514C9.4832-9.15392 9.41735-9.25271 9.28564-9.25271 9.05514-9.25271 8.19902-8.42951 7.86974-7.80389 7.40875-8.95636 6.58556-9.28564 5.89407-9.28564 3.42449-9.28564 0.856122-6.19042 0.856122-3.12814 0.856122-1.08662 2.07445 0.230495 3.62206 0.230495 4.51111 0.230495 5.3343-0.263422 6.09164-1.02076 5.89407-0.29635 5.20259 2.53544 5.13673 2.73301 4.9721 3.32571 4.80746 3.39156 3.62206 3.42449 3.35863 3.42449 3.16107 3.42449 3.16107 3.85255 3.16107 3.85255 3.16107 4.08305 3.42449 4.08305 4.08305 4.08305 4.84038 4.01719 5.53187 4.01719 6.22335 4.01719 6.98069 4.08305 7.7051 4.08305 7.80389 4.08305 8.06731 4.08305 8.06731 3.65498 8.06731 3.42449 7.86974 3.42449 7.50754 3.42449 6.5197 3.42449 6.5197 3.29278 6.5197 3.09521 6.5197 2.93057 6.55263 2.79886 6.58556 2.63422ZM3.68791-0.230495C2.40373-0.230495 2.33787-1.84396 2.33787-2.20616 2.33787-3.22692 2.93057-5.49894 3.29278-6.38799 3.95133-7.9356 5.03795-8.82465 5.89407-8.82465 7.27704-8.82465 7.57339-7.1124 7.57339-6.98069 7.57339-6.84898 6.42092-2.23909 6.35506-2.17323 6.02579-1.58053 4.84038-0.230495 3.68791-0.230495Z" fill="#000000" fill-rule="nonzero" fill-opacity="1" transform="matrix(1.0018 0 0 1 94.0847 201.806)"/><path d="M4.90624-9.35149C4.90624-9.74663 4.90624-9.74663 4.47818-9.74663 3.52327-8.82465 2.20616-8.82465 1.61346-8.82465L1.61346-8.2978C1.94274-8.2978 2.93057-8.2978 3.72084-8.69294L3.72084-1.21833C3.72084-0.724411 3.72084-0.526845 2.27202-0.526845L1.71224-0.526845 1.71224 0C1.97567 0 3.7867-0.0658556 4.31354-0.0658556 4.77453-0.0658556 6.61849 0 6.94776 0L6.94776-0.526845 6.38799-0.526845C4.90624-0.526845 4.90624-0.724411 4.90624-1.21833Z" fill="#000000" fill-rule="nonzero" fill-opacity="1" transform="matrix(1.0018 0 0 1 103.475 204.956)"/><g clip-path="url(#clip1)"><path d="M284.093 89.3825 160.416 89.3825 160.416 119.248 284.093 119.248Z" fill="#746AFF" fill-rule="nonzero" fill-opacity="1" transform="matrix(1.0018 0 0 1 0.534375 64)"/></g><path d="M298.69 14.9328 179.212 14.9328 179.212-14.9328 298.69-14.9328Z" stroke="#120777" stroke-width="2.09954" stroke-linecap="butt" stroke-linejoin="miter" stroke-miterlimit="10" stroke-opacity="1" fill="none" fill-rule="nonzero" transform="matrix(1.0018 0 0 -1 -16.1925 168.315)"/><path d="M9.4832-9.05514C9.4832-9.15392 9.41735-9.25271 9.28564-9.25271 9.05514-9.25271 8.19902-8.42951 7.86974-7.80389 7.40875-8.95636 6.58556-9.28564 5.89407-9.28564 3.42449-9.28564 0.856122-6.19042 0.856122-3.12814 0.856122-1.08662 2.07445 0.230495 3.62206 0.230495 4.51111 0.230495 5.3343-0.263422 6.09164-1.02076 5.89407-0.29635 5.20259 2.53544 5.13673 2.73301 4.9721 3.32571 4.80746 3.39156 3.62206 3.42449 3.35863 3.42449 3.16107 3.42449 3.16107 3.85255 3.16107 3.85255 3.16107 4.08305 3.42449 4.08305 4.08305 4.08305 4.84038 4.01719 5.53187 4.01719 6.22335 4.01719 6.98069 4.08305 7.7051 4.08305 7.80389 4.08305 8.06731 4.08305 8.06731 3.65498 8.06731 3.42449 7.86974 3.42449 7.50754 3.42449 6.5197 3.42449 6.5197 3.29278 6.5197 3.09521 6.5197 2.93057 6.55263 2.79886 6.58556 2.63422ZM3.68791-0.230495C2.40373-0.230495 2.33787-1.84396 2.33787-2.20616 2.33787-3.22692 2.93057-5.49894 3.29278-6.38799 3.95133-7.9356 5.03795-8.82465 5.89407-8.82465 7.27704-8.82465 7.57339-7.1124 7.57339-6.98069 7.57339-6.84898 6.42092-2.23909 6.35506-2.17323 6.02579-1.58053 4.84038-0.230495 3.68791-0.230495Z" fill="#000000" fill-rule="nonzero" fill-opacity="1" transform="matrix(1.0018 0 0 1 213.776 201.806)"/><path d="M7.40875-2.66715 6.91484-2.66715C6.88191-2.33787 6.71727-1.48175 6.5197-1.35004 6.42092-1.25126 5.30137-1.25126 5.07088-1.25126L2.3708-1.25126C3.91841-2.6013 4.44525-3.02936 5.30137-3.72084 6.38799-4.57696 7.40875-5.49894 7.40875-6.88191 7.40875-8.66001 5.86115-9.74663 3.98426-9.74663 2.17323-9.74663 0.921978-8.46244 0.921978-7.1124 0.921978-6.38799 1.54761-6.28921 1.71224-6.28921 2.04152-6.28921 2.46958-6.55263 2.46958-7.07947 2.46958-7.3429 2.3708-7.86974 1.61346-7.86974 2.07445-8.8905 3.06228-9.21978 3.75377-9.21978 5.23552-9.21978 5.99286-8.06731 5.99286-6.88191 5.99286-5.59772 5.07088-4.60989 4.60989-4.08305L1.08662-0.559772C0.921978-0.428061 0.921978-0.395133 0.921978 0L6.98069 0Z" fill="#000000" fill-rule="nonzero" fill-opacity="1" transform="matrix(1.0018 0 0 1 223.166 204.956)"/><g clip-path="url(#clip2)"><path d="M403.563 89.3825 279.894 89.3825 279.894 119.248 403.563 119.248Z" fill="#746AFF" fill-rule="nonzero" fill-opacity="1" transform="matrix(1.0018 0 0 1 0.534375 64)"/></g><path d="M418.161 14.9328 298.69 14.9328 298.69-14.9328 418.161-14.9328Z" stroke="#120777" stroke-width="2.09954" stroke-linecap="butt" stroke-linejoin="miter" stroke-miterlimit="10" stroke-opacity="1" fill="none" fill-rule="nonzero" transform="matrix(1.0018 0 0 -1 -16.1925 168.315)"/><path d="M9.4832-9.05514C9.4832-9.15392 9.41735-9.25271 9.28564-9.25271 9.05514-9.25271 8.19902-8.42951 7.86974-7.80389 7.40875-8.95636 6.58556-9.28564 5.89407-9.28564 3.42449-9.28564 0.856122-6.19042 0.856122-3.12814 0.856122-1.08662 2.07445 0.230495 3.62206 0.230495 4.51111 0.230495 5.3343-0.263422 6.09164-1.02076 5.89407-0.29635 5.20259 2.53544 5.13673 2.73301 4.9721 3.32571 4.80746 3.39156 3.62206 3.42449 3.35863 3.42449 3.16107 3.42449 3.16107 3.85255 3.16107 3.85255 3.16107 4.08305 3.42449 4.08305 4.08305 4.08305 4.84038 4.01719 5.53187 4.01719 6.22335 4.01719 6.98069 4.08305 7.7051 4.08305 7.80389 4.08305 8.06731 4.08305 8.06731 3.65498 8.06731 3.42449 7.86974 3.42449 7.50754 3.42449 6.5197 3.42449 6.5197 3.29278 6.5197 3.09521 6.5197 2.93057 6.55263 2.79886 6.58556 2.63422ZM3.68791-0.230495C2.40373-0.230495 2.33787-1.84396 2.33787-2.20616 2.33787-3.22692 2.93057-5.49894 3.29278-6.38799 3.95133-7.9356 5.03795-8.82465 5.89407-8.82465 7.27704-8.82465 7.57339-7.1124 7.57339-6.98069 7.57339-6.84898 6.42092-2.23909 6.35506-2.17323 6.02579-1.58053 4.84038-0.230495 3.68791-0.230495Z" fill="#000000" fill-rule="nonzero" fill-opacity="1" transform="matrix(1.0018 0 0 1 333.464 201.806)"/><path d="M4.01719-4.90624C5.16966-4.90624 5.99286-4.11597 5.99286-2.53544 5.99286-0.724411 4.90624-0.164639 4.08305-0.164639 3.49035-0.164639 2.17323-0.329278 1.58053-1.21833 2.27202-1.21833 2.43666-1.71224 2.43666-2.04152 2.43666-2.50251 2.07445-2.83179 1.61346-2.83179 1.21833-2.83179 0.790267-2.56837 0.790267-1.97567 0.790267-0.5927 2.30495 0.29635 4.08305 0.29635 6.12457 0.29635 7.54046-1.08662 7.54046-2.53544 7.54046-3.68791 6.61849-4.84038 5.00502-5.16966 6.5197-5.72944 7.07947-6.81605 7.07947-7.73803 7.07947-8.8905 5.76236-9.74663 4.11597-9.74663 2.50251-9.74663 1.25126-8.95636 1.25126-7.77096 1.25126-7.27704 1.58053-7.01362 2.0086-7.01362 2.46958-7.01362 2.76593-7.3429 2.76593-7.73803 2.76593-8.16609 2.46958-8.49537 2.0086-8.5283 2.53544-9.15392 3.52327-9.31856 4.08305-9.31856 4.7416-9.31856 5.66358-8.98929 5.66358-7.73803 5.66358-7.1124 5.46601-6.42092 5.07088-5.99286 4.60989-5.43308 4.18183-5.40016 3.45742-5.3343 3.09521-5.30137 3.06228-5.30137 2.99643-5.30137 2.9635-5.30137 2.83179-5.26845 2.83179-5.10381 2.83179-4.90624 2.9635-4.90624 3.22692-4.90624Z" fill="#000000" fill-rule="nonzero" fill-opacity="1" transform="matrix(1.0018 0 0 1 342.855 204.956)"/><g clip-path="url(#clip3)"><path d="M523.041 89.3825 399.365 89.3825 399.365 119.248 523.041 119.248Z" fill="#746AFF" fill-rule="nonzero" fill-opacity="1" transform="matrix(1.0018 0 0 1 0.534375 64)"/></g><path d="M537.639 14.9328 418.161 14.9328 418.161-14.9328 537.639-14.9328Z" stroke="#120777" stroke-width="2.09954" stroke-linecap="butt" stroke-linejoin="miter" stroke-miterlimit="10" stroke-opacity="1" fill="none" fill-rule="nonzero" transform="matrix(1.0018 0 0 -1 -16.1925 168.315)"/><path d="M9.4832-9.05514C9.4832-9.15392 9.41735-9.25271 9.28564-9.25271 9.05514-9.25271 8.19902-8.42951 7.86974-7.80389 7.40875-8.95636 6.58556-9.28564 5.89407-9.28564 3.42449-9.28564 0.856122-6.19042 0.856122-3.12814 0.856122-1.08662 2.07445 0.230495 3.62206 0.230495 4.51111 0.230495 5.3343-0.263422 6.09164-1.02076 5.89407-0.29635 5.20259 2.53544 5.13673 2.73301 4.9721 3.32571 4.80746 3.39156 3.62206 3.42449 3.35863 3.42449 3.16107 3.42449 3.16107 3.85255 3.16107 3.85255 3.16107 4.08305 3.42449 4.08305 4.08305 4.08305 4.84038 4.01719 5.53187 4.01719 6.22335 4.01719 6.98069 4.08305 7.7051 4.08305 7.80389 4.08305 8.06731 4.08305 8.06731 3.65498 8.06731 3.42449 7.86974 3.42449 7.50754 3.42449 6.5197 3.42449 6.5197 3.29278 6.5197 3.09521 6.5197 2.93057 6.55263 2.79886 6.58556 2.63422ZM3.68791-0.230495C2.40373-0.230495 2.33787-1.84396 2.33787-2.20616 2.33787-3.22692 2.93057-5.49894 3.29278-6.38799 3.95133-7.9356 5.03795-8.82465 5.89407-8.82465 7.27704-8.82465 7.57339-7.1124 7.57339-6.98069 7.57339-6.84898 6.42092-2.23909 6.35506-2.17323 6.02579-1.58053 4.84038-0.230495 3.68791-0.230495Z" fill="#000000" fill-rule="nonzero" fill-opacity="1" transform="matrix(1.0018 0 0 1 453.155 201.806)"/><path d="M7.77096-2.40373 7.77096-2.93057 6.12457-2.93057 6.12457-9.4832C6.12457-9.77955 6.12457-9.91126 5.82822-9.91126 5.63065-9.91126 5.5648-9.91126 5.43308-9.68077L0.559772-2.93057 0.559772-2.40373 4.90624-2.40373 4.90624-1.21833C4.90624-0.691484 4.90624-0.526845 3.68791-0.526845L3.29278-0.526845 3.29278 0C4.05012-0.0329278 4.9721-0.0658556 5.49894-0.0658556 6.05871-0.0658556 6.98069-0.0329278 7.73803 0L7.73803-0.526845 7.3429-0.526845C6.12457-0.526845 6.12457-0.691484 6.12457-1.21833L6.12457-2.40373ZM5.00502-8.2978 5.00502-2.93057 1.11954-2.93057Z" fill="#000000" fill-rule="nonzero" fill-opacity="1" transform="matrix(1.0018 0 0 1 462.546 204.956)"/><g clip-path="url(#clip4)"><path d="M642.512 89.3825 518.843 89.3825 518.843 119.248 642.512 119.248Z" fill="#746AFF" fill-rule="nonzero" fill-opacity="1" transform="matrix(1.0018 0 0 1 0.534375 64)"/></g><path d="M657.109 14.9328 537.639 14.9328 537.639-14.9328 657.109-14.9328Z" stroke="#120777" stroke-width="2.09954" stroke-linecap="butt" stroke-linejoin="miter" stroke-miterlimit="10" stroke-opacity="1" fill="none" fill-rule="nonzero" transform="matrix(1.0018 0 0 -1 -16.1925 168.315)"/><path d="M9.4832-9.05514C9.4832-9.15392 9.41735-9.25271 9.28564-9.25271 9.05514-9.25271 8.19902-8.42951 7.86974-7.80389 7.40875-8.95636 6.58556-9.28564 5.89407-9.28564 3.42449-9.28564 0.856122-6.19042 0.856122-3.12814 0.856122-1.08662 2.07445 0.230495 3.62206 0.230495 4.51111 0.230495 5.3343-0.263422 6.09164-1.02076 5.89407-0.29635 5.20259 2.53544 5.13673 2.73301 4.9721 3.32571 4.80746 3.39156 3.62206 3.42449 3.35863 3.42449 3.16107 3.42449 3.16107 3.85255 3.16107 3.85255 3.16107 4.08305 3.42449 4.08305 4.08305 4.08305 4.84038 4.01719 5.53187 4.01719 6.22335 4.01719 6.98069 4.08305 7.7051 4.08305 7.80389 4.08305 8.06731 4.08305 8.06731 3.65498 8.06731 3.42449 7.86974 3.42449 7.50754 3.42449 6.5197 3.42449 6.5197 3.29278 6.5197 3.09521 6.5197 2.93057 6.55263 2.79886 6.58556 2.63422ZM3.68791-0.230495C2.40373-0.230495 2.33787-1.84396 2.33787-2.20616 2.33787-3.22692 2.93057-5.49894 3.29278-6.38799 3.95133-7.9356 5.03795-8.82465 5.89407-8.82465 7.27704-8.82465 7.57339-7.1124 7.57339-6.98069 7.57339-6.84898 6.42092-2.23909 6.35506-2.17323 6.02579-1.58053 4.84038-0.230495 3.68791-0.230495Z" fill="#000000" fill-rule="nonzero" fill-opacity="1" transform="matrix(1.0018 0 0 1 572.846 201.806)"/><path d="M2.27202-8.19902C3.02936-8.00145 3.45742-8.00145 3.68791-8.00145 5.63065-8.00145 6.78312-9.31856 6.78312-9.54906 6.78312-9.7137 6.68434-9.74663 6.61849-9.74663 6.58556-9.74663 6.55263-9.74663 6.48677-9.7137 6.12457-9.58199 5.36723-9.28564 4.28061-9.28564 3.85255-9.28564 3.09521-9.31856 2.14031-9.68077 1.97567-9.74663 1.94274-9.74663 1.94274-9.74663 1.74517-9.74663 1.74517-9.58199 1.74517-9.35149L1.74517-5.03795C1.74517-4.77453 1.74517-4.60989 1.97567-4.60989 2.10738-4.60989 2.14031-4.60989 2.27202-4.80746 2.89765-5.59772 3.81962-5.72944 4.31354-5.72944 5.20259-5.72944 5.59772-5.03795 5.66358-4.90624 5.927-4.41232 6.02579-3.85255 6.02579-2.99643 6.02579-2.56837 6.02579-1.71224 5.5648-1.05369 5.20259-0.526845 4.57696-0.164639 3.85255-0.164639 2.89765-0.164639 1.90981-0.691484 1.54761-1.67932 2.10738-1.64639 2.40373-2.0086 2.40373-2.40373 2.40373-3.02936 1.84396-3.12814 1.64639-3.12814 1.64639-3.12814 0.921978-3.12814 0.921978-2.33787 0.921978-1.02076 2.14031 0.29635 3.88548 0.29635 5.76236 0.29635 7.40875-1.08662 7.40875-2.9635 7.40875-4.60989 6.1575-6.12457 4.34647-6.12457 3.68791-6.12457 2.93057-5.99286 2.27202-5.43308Z" fill="#000000" fill-rule="nonzero" fill-opacity="1" transform="matrix(1.0018 0 0 1 582.237 204.956)"/><g clip-path="url(#clip5)"><path d="M761.99 89.3825 638.313 89.3825 638.313 119.248 761.99 119.248Z" fill="#746AFF" fill-rule="nonzero" fill-opacity="1" transform="matrix(1.0018 0 0 1 0.534375 64)"/></g><path d="M776.588 14.9328 657.109 14.9328 657.109-14.9328 776.588-14.9328Z" stroke="#120777" stroke-width="2.09954" stroke-linecap="butt" stroke-linejoin="miter" stroke-miterlimit="10" stroke-opacity="1" fill="none" fill-rule="nonzero" transform="matrix(1.0018 0 0 -1 -16.1925 168.315)"/><path d="M9.4832-9.05514C9.4832-9.15392 9.41735-9.25271 9.28564-9.25271 9.05514-9.25271 8.19902-8.42951 7.86974-7.80389 7.40875-8.95636 6.58556-9.28564 5.89407-9.28564 3.42449-9.28564 0.856122-6.19042 0.856122-3.12814 0.856122-1.08662 2.07445 0.230495 3.62206 0.230495 4.51111 0.230495 5.3343-0.263422 6.09164-1.02076 5.89407-0.29635 5.20259 2.53544 5.13673 2.73301 4.9721 3.32571 4.80746 3.39156 3.62206 3.42449 3.35863 3.42449 3.16107 3.42449 3.16107 3.85255 3.16107 3.85255 3.16107 4.08305 3.42449 4.08305 4.08305 4.08305 4.84038 4.01719 5.53187 4.01719 6.22335 4.01719 6.98069 4.08305 7.7051 4.08305 7.80389 4.08305 8.06731 4.08305 8.06731 3.65498 8.06731 3.42449 7.86974 3.42449 7.50754 3.42449 6.5197 3.42449 6.5197 3.29278 6.5197 3.09521 6.5197 2.93057 6.55263 2.79886 6.58556 2.63422ZM3.68791-0.230495C2.40373-0.230495 2.33787-1.84396 2.33787-2.20616 2.33787-3.22692 2.93057-5.49894 3.29278-6.38799 3.95133-7.9356 5.03795-8.82465 5.89407-8.82465 7.27704-8.82465 7.57339-7.1124 7.57339-6.98069 7.57339-6.84898 6.42092-2.23909 6.35506-2.17323 6.02579-1.58053 4.84038-0.230495 3.68791-0.230495Z" fill="#000000" fill-rule="nonzero" fill-opacity="1" transform="matrix(1.0018 0 0 1 692.535 201.806)"/><path d="M2.20616-4.80746C2.20616-5.99286 2.30495-7.07947 2.86472-8.00145 3.35863-8.79172 4.1489-9.31856 5.10381-9.31856 5.53187-9.31856 6.12457-9.21978 6.42092-8.82465 6.05871-8.79172 5.72944-8.5283 5.72944-8.10024 5.72944-7.73803 5.99286-7.40875 6.42092-7.40875 6.88191-7.40875 7.14533-7.7051 7.14533-8.13316 7.14533-8.98929 6.5197-9.74663 5.07088-9.74663 2.9635-9.74663 0.790267-7.80389 0.790267-4.64282 0.790267-0.856122 2.56837 0.29635 4.21476 0.29635 5.99286 0.29635 7.54046-1.08662 7.54046-2.99643 7.54046-4.87331 6.05871-6.25628 4.34647-6.25628 3.16107-6.25628 2.53544-5.46601 2.20616-4.80746ZM4.21476-0.164639C3.45742-0.164639 2.89765-0.5927 2.56837-1.25126 2.3708-1.67932 2.23909-2.43666 2.23909-3.29278 2.23909-4.7416 3.09521-5.82822 4.28061-5.82822 4.93917-5.82822 5.40016-5.5648 5.76236-5.03795 6.12457-4.47818 6.12457-3.85255 6.12457-2.99643 6.12457-2.17323 6.12457-1.54761 5.72944-0.954906 5.40016-0.460989 4.90624-0.164639 4.21476-0.164639Z" fill="#000000" fill-rule="nonzero" fill-opacity="1" transform="matrix(1.0018 0 0 1 701.925 204.956)"/><g clip-path="url(#clip6)"><path d="M881.469 89.3825 757.792 89.3825 757.792 119.248 881.469 119.248Z" fill="#746AFF" fill-rule="nonzero" fill-opacity="1" transform="matrix(1.0018 0 0 1 0.534375 64)"/></g><path d="M896.058 14.9328 776.588 14.9328 776.588-14.9328 896.058-14.9328Z" stroke="#120777" stroke-width="2.09954" stroke-linecap="butt" stroke-linejoin="miter" stroke-miterlimit="10" stroke-opacity="1" fill="none" fill-rule="nonzero" transform="matrix(1.0018 0 0 -1 -16.1925 168.315)"/><path d="M9.4832-9.05514C9.4832-9.15392 9.41735-9.25271 9.28564-9.25271 9.05514-9.25271 8.19902-8.42951 7.86974-7.80389 7.40875-8.95636 6.58556-9.28564 5.89407-9.28564 3.42449-9.28564 0.856122-6.19042 0.856122-3.12814 0.856122-1.08662 2.07445 0.230495 3.62206 0.230495 4.51111 0.230495 5.3343-0.263422 6.09164-1.02076 5.89407-0.29635 5.20259 2.53544 5.13673 2.73301 4.9721 3.32571 4.80746 3.39156 3.62206 3.42449 3.35863 3.42449 3.16107 3.42449 3.16107 3.85255 3.16107 3.85255 3.16107 4.08305 3.42449 4.08305 4.08305 4.08305 4.84038 4.01719 5.53187 4.01719 6.22335 4.01719 6.98069 4.08305 7.7051 4.08305 7.80389 4.08305 8.06731 4.08305 8.06731 3.65498 8.06731 3.42449 7.86974 3.42449 7.50754 3.42449 6.5197 3.42449 6.5197 3.29278 6.5197 3.09521 6.5197 2.93057 6.55263 2.79886 6.58556 2.63422ZM3.68791-0.230495C2.40373-0.230495 2.33787-1.84396 2.33787-2.20616 2.33787-3.22692 2.93057-5.49894 3.29278-6.38799 3.95133-7.9356 5.03795-8.82465 5.89407-8.82465 7.27704-8.82465 7.57339-7.1124 7.57339-6.98069 7.57339-6.84898 6.42092-2.23909 6.35506-2.17323 6.02579-1.58053 4.84038-0.230495 3.68791-0.230495Z" fill="#000000" fill-rule="nonzero" fill-opacity="1" transform="matrix(1.0018 0 0 1 812.226 201.806)"/><path d="M7.86974-8.85758C8.00145-9.05514 8.00145-9.08807 8.00145-9.45028L4.1489-9.45028C3.5562-9.45028 3.39156-9.4832 2.86472-9.51613 2.10738-9.58199 2.07445-9.68077 2.04152-9.91126L1.54761-9.91126 1.02076-6.78312 1.51468-6.78312C1.54761-7.01362 1.71224-7.96852 1.94274-8.13316 2.04152-8.19902 3.25985-8.19902 3.45742-8.19902L6.65141-8.19902C6.19042-7.60632 5.43308-6.68434 5.13673-6.25628 3.22692-3.75377 3.02936-1.41589 3.02936-0.559772 3.02936-0.395133 3.02936 0.29635 3.72084 0.29635 4.44525 0.29635 4.44525-0.362206 4.44525-0.559772L4.44525-1.15247C4.44525-3.98426 5.03795-5.30137 5.66358-6.09164Z" fill="#000000" fill-rule="nonzero" fill-opacity="1" transform="matrix(1.0018 0 0 1 821.616 204.956)"/><g clip-path="url(#clip7)"><path d="M1000.94 89.3825 877.262 89.3825 877.262 119.248 1000.94 119.248Z" fill="#746AFF" fill-rule="nonzero" fill-opacity="1" transform="matrix(1.0018 0 0 1 0.534375 64)"/></g><path d="M1015.54 14.9328 896.058 14.9328 896.058-14.9328 1015.54-14.9328Z" stroke="#120777" stroke-width="2.09954" stroke-linecap="butt" stroke-linejoin="miter" stroke-miterlimit="10" stroke-opacity="1" fill="none" fill-rule="nonzero" transform="matrix(1.0018 0 0 -1 -16.1925 168.315)"/><path d="M9.4832-9.05514C9.4832-9.15392 9.41735-9.25271 9.28564-9.25271 9.05514-9.25271 8.19902-8.42951 7.86974-7.80389 7.40875-8.95636 6.58556-9.28564 5.89407-9.28564 3.42449-9.28564 0.856122-6.19042 0.856122-3.12814 0.856122-1.08662 2.07445 0.230495 3.62206 0.230495 4.51111 0.230495 5.3343-0.263422 6.09164-1.02076 5.89407-0.29635 5.20259 2.53544 5.13673 2.73301 4.9721 3.32571 4.80746 3.39156 3.62206 3.42449 3.35863 3.42449 3.16107 3.42449 3.16107 3.85255 3.16107 3.85255 3.16107 4.08305 3.42449 4.08305 4.08305 4.08305 4.84038 4.01719 5.53187 4.01719 6.22335 4.01719 6.98069 4.08305 7.7051 4.08305 7.80389 4.08305 8.06731 4.08305 8.06731 3.65498 8.06731 3.42449 7.86974 3.42449 7.50754 3.42449 6.5197 3.42449 6.5197 3.29278 6.5197 3.09521 6.5197 2.93057 6.55263 2.79886 6.58556 2.63422ZM3.68791-0.230495C2.40373-0.230495 2.33787-1.84396 2.33787-2.20616 2.33787-3.22692 2.93057-5.49894 3.29278-6.38799 3.95133-7.9356 5.03795-8.82465 5.89407-8.82465 7.27704-8.82465 7.57339-7.1124 7.57339-6.98069 7.57339-6.84898 6.42092-2.23909 6.35506-2.17323 6.02579-1.58053 4.84038-0.230495 3.68791-0.230495Z" fill="#000000" fill-rule="nonzero" fill-opacity="1" transform="matrix(1.0018 0 0 1 931.914 201.806)"/><path d="M5.20259-5.30137C6.35506-5.86115 7.07947-6.55263 7.07947-7.57339 7.07947-8.98929 5.59772-9.74663 4.18183-9.74663 2.56837-9.74663 1.25126-8.69294 1.25126-7.30997 1.25126-6.61849 1.58053-6.12457 1.84396-5.82822 2.10738-5.49894 2.20616-5.43308 3.06228-4.93917 2.23909-4.57696 0.790267-3.7867 0.790267-2.23909 0.790267-0.625628 2.46958 0.29635 4.1489 0.29635 6.02579 0.29635 7.54046-0.88905 7.54046-2.46958 7.54046-3.45742 6.98069-4.28061 6.12457-4.77453 5.927-4.90624 5.43308-5.16966 5.20259-5.30137ZM2.83179-6.68434C2.43666-6.91484 2.04152-7.30997 2.04152-7.86974 2.04152-8.79172 3.09521-9.31856 4.1489-9.31856 5.30137-9.31856 6.32214-8.59415 6.32214-7.57339 6.32214-6.25628 4.77453-5.59772 4.77453-5.59772 4.7416-5.59772 4.70867-5.59772 4.60989-5.66358ZM3.52327-4.64282 5.5648-3.49035C5.927-3.25985 6.65141-2.83179 6.65141-1.97567 6.65141-0.856122 5.43308-0.164639 4.18183-0.164639 2.83179-0.164639 1.67932-1.05369 1.67932-2.23909 1.67932-3.32571 2.46958-4.18183 3.52327-4.64282Z" fill="#000000" fill-rule="nonzero" fill-opacity="1" transform="matrix(1.0018 0 0 1 941.305 204.956)"/><g clip-path="url(#clip8)"><path d="M1120.42 89.3825 996.741 89.3825 996.741 119.248 1120.42 119.248Z" fill="#746AFF" fill-rule="nonzero" fill-opacity="1" transform="matrix(1.0018 0 0 1 0.534375 64)"/></g><path d="M1135.02 14.9328 1015.54 14.9328 1015.54-14.9328 1135.02-14.9328Z" stroke="#120777" stroke-width="2.09954" stroke-linecap="butt" stroke-linejoin="miter" stroke-miterlimit="10" stroke-opacity="1" fill="none" fill-rule="nonzero" transform="matrix(1.0018 0 0 -1 -16.1925 168.315)"/><path d="M9.4832-9.05514C9.4832-9.15392 9.41735-9.25271 9.28564-9.25271 9.05514-9.25271 8.19902-8.42951 7.86974-7.80389 7.40875-8.95636 6.58556-9.28564 5.89407-9.28564 3.42449-9.28564 0.856122-6.19042 0.856122-3.12814 0.856122-1.08662 2.07445 0.230495 3.62206 0.230495 4.51111 0.230495 5.3343-0.263422 6.09164-1.02076 5.89407-0.29635 5.20259 2.53544 5.13673 2.73301 4.9721 3.32571 4.80746 3.39156 3.62206 3.42449 3.35863 3.42449 3.16107 3.42449 3.16107 3.85255 3.16107 3.85255 3.16107 4.08305 3.42449 4.08305 4.08305 4.08305 4.84038 4.01719 5.53187 4.01719 6.22335 4.01719 6.98069 4.08305 7.7051 4.08305 7.80389 4.08305 8.06731 4.08305 8.06731 3.65498 8.06731 3.42449 7.86974 3.42449 7.50754 3.42449 6.5197 3.42449 6.5197 3.29278 6.5197 3.09521 6.5197 2.93057 6.55263 2.79886 6.58556 2.63422ZM3.68791-0.230495C2.40373-0.230495 2.33787-1.84396 2.33787-2.20616 2.33787-3.22692 2.93057-5.49894 3.29278-6.38799 3.95133-7.9356 5.03795-8.82465 5.89407-8.82465 7.27704-8.82465 7.57339-7.1124 7.57339-6.98069 7.57339-6.84898 6.42092-2.23909 6.35506-2.17323 6.02579-1.58053 4.84038-0.230495 3.68791-0.230495Z" fill="#000000" fill-rule="nonzero" fill-opacity="1" transform="matrix(1.0018 0 0 1 1051.61 201.806)"/><path d="M6.12457-4.3794C6.12457-0.724411 4.34647-0.164639 3.45742-0.164639 3.12814-0.164639 2.33787-0.197567 1.94274-0.658556 2.56837-0.724411 2.6013-1.21833 2.6013-1.35004 2.6013-1.71224 2.33787-2.04152 1.90981-2.04152 1.48175-2.04152 1.21833-1.74517 1.21833-1.31711 1.21833-0.329278 2.04152 0.29635 3.45742 0.29635 5.5648 0.29635 7.54046-1.67932 7.54046-4.84038 7.54046-8.46244 5.927-9.74663 4.21476-9.74663 3.72084-9.74663 2.73301-9.68077 1.87688-8.85758 1.38297-8.36366 0.790267-7.80389 0.790267-6.48677 0.790267-4.60989 2.27202-3.22692 3.98426-3.22692 5.16966-3.22692 5.79529-4.01719 6.12457-4.67575ZM4.08305-3.65498C3.49035-3.65498 2.9635-3.81962 2.53544-4.51111 2.20616-5.03795 2.20616-5.66358 2.20616-6.48677 2.20616-7.3429 2.20616-7.90267 2.63422-8.49537 2.99643-9.02221 3.45742-9.31856 4.21476-9.31856 4.9721-9.31856 5.43308-8.85758 5.66358-8.46244 6.05871-7.86974 6.09164-6.81605 6.09164-6.32214 6.09164-4.41232 5.00502-3.65498 4.08305-3.65498Z" fill="#000000" fill-rule="nonzero" fill-opacity="1" transform="matrix(1.0018 0 0 1 1061 204.956)"/><g clip-path="url(#clip9)"><path d="M1239.89 89.3825 1116.22 89.3825 1116.22 119.248 1239.89 119.248Z" fill="#746AFF" fill-rule="nonzero" fill-opacity="1" transform="matrix(1.0018 0 0 1 0.534375 64)"/></g><path d="M1254.49 14.9328 1135.02 14.9328 1135.02-14.9328 1254.49-14.9328Z" stroke="#120777" stroke-width="2.09954" stroke-linecap="butt" stroke-linejoin="miter" stroke-miterlimit="10" stroke-opacity="1" fill="none" fill-rule="nonzero" transform="matrix(1.0018 0 0 -1 -16.1925 168.315)"/><path d="M9.4832-9.05514C9.4832-9.15392 9.41735-9.25271 9.28564-9.25271 9.05514-9.25271 8.19902-8.42951 7.86974-7.80389 7.40875-8.95636 6.58556-9.28564 5.89407-9.28564 3.42449-9.28564 0.856122-6.19042 0.856122-3.12814 0.856122-1.08662 2.07445 0.230495 3.62206 0.230495 4.51111 0.230495 5.3343-0.263422 6.09164-1.02076 5.89407-0.29635 5.20259 2.53544 5.13673 2.73301 4.9721 3.32571 4.80746 3.39156 3.62206 3.42449 3.35863 3.42449 3.16107 3.42449 3.16107 3.85255 3.16107 3.85255 3.16107 4.08305 3.42449 4.08305 4.08305 4.08305 4.84038 4.01719 5.53187 4.01719 6.22335 4.01719 6.98069 4.08305 7.7051 4.08305 7.80389 4.08305 8.06731 4.08305 8.06731 3.65498 8.06731 3.42449 7.86974 3.42449 7.50754 3.42449 6.5197 3.42449 6.5197 3.29278 6.5197 3.09521 6.5197 2.93057 6.55263 2.79886 6.58556 2.63422ZM3.68791-0.230495C2.40373-0.230495 2.33787-1.84396 2.33787-2.20616 2.33787-3.22692 2.93057-5.49894 3.29278-6.38799 3.95133-7.9356 5.03795-8.82465 5.89407-8.82465 7.27704-8.82465 7.57339-7.1124 7.57339-6.98069 7.57339-6.84898 6.42092-2.23909 6.35506-2.17323 6.02579-1.58053 4.84038-0.230495 3.68791-0.230495Z" fill="#000000" fill-rule="nonzero" fill-opacity="1" transform="matrix(1.0018 0 0 1 1167.1 201.806)"/><path d="M4.90624-9.35149C4.90624-9.74663 4.90624-9.74663 4.47818-9.74663 3.52327-8.82465 2.20616-8.82465 1.61346-8.82465L1.61346-8.2978C1.94274-8.2978 2.93057-8.2978 3.72084-8.69294L3.72084-1.21833C3.72084-0.724411 3.72084-0.526845 2.27202-0.526845L1.71224-0.526845 1.71224 0C1.97567 0 3.7867-0.0658556 4.31354-0.0658556 4.77453-0.0658556 6.61849 0 6.94776 0L6.94776-0.526845 6.38799-0.526845C4.90624-0.526845 4.90624-0.724411 4.90624-1.21833Z" fill="#000000" fill-rule="nonzero" fill-opacity="1" transform="matrix(1.0018 0 0 1 1176.49 204.956)"/><path d="M7.57339-4.67575C7.57339-6.28921 7.37582-7.47461 6.71727-8.49537 6.25628-9.15392 5.3343-9.74663 4.18183-9.74663 0.757339-9.74663 0.757339-5.72944 0.757339-4.67575 0.757339-3.62206 0.757339 0.29635 4.18183 0.29635 7.57339 0.29635 7.57339-3.62206 7.57339-4.67575ZM4.18183-0.131711C3.49035-0.131711 2.6013-0.526845 2.30495-1.71224 2.10738-2.56837 2.10738-3.7867 2.10738-4.87331 2.10738-5.95993 2.10738-7.07947 2.30495-7.86974 2.63422-9.02221 3.5562-9.35149 4.18183-9.35149 4.9721-9.35149 5.72944-8.85758 5.99286-8.00145 6.22335-7.21119 6.25628-6.1575 6.25628-4.87331 6.25628-3.7867 6.25628-2.70008 6.05871-1.7781 5.76236-0.428061 4.77453-0.131711 4.18183-0.131711Z" fill="#000000" fill-rule="nonzero" fill-opacity="1" transform="matrix(1.0018 0 0 1 1184.87 204.956)"/></g></g></svg>